<?xml version="1.0" standalone="no"?>
<!DOCTYPE svg PUBLIC "-//W3C//DTD SVG 20010904//EN"
 "http://www.w3.org/TR/2001/REC-SVG-20010904/DTD/svg10.dtd">
<svg version="1.0" xmlns="http://www.w3.org/2000/svg"
 width="737.000000pt" height="737.000000pt" viewBox="0 0 737.000000 737.000000"
 preserveAspectRatio="xMidYMid meet">
<metadata>
Created by potrace 1.14, written by Peter Selinger 2001-2017
</metadata>
<g transform="translate(0.000000,737.000000) scale(0.100000,-0.100000)"
fill="#000000" stroke="none">
<path d="M3135 7327 c-8 -12 -13 -34 -10 -47 2 -14 6 -47 10 -75 3 -27 8 -59
10 -70 3 -11 7 -38 10 -60 3 -22 8 -53 10 -70 3 -16 7 -46 10 -65 2 -19 8 -64
13 -100 6 -36 10 -72 10 -80 1 -8 10 -71 21 -140 11 -69 23 -147 26 -175 4
-27 8 -57 10 -65 3 -8 7 -40 10 -70 13 -124 39 -161 92 -137 29 13 36 35 28
89 -3 24 -8 63 -12 88 -3 25 -7 54 -9 65 -3 11 -13 83 -24 160 -12 77 -22 151
-25 165 -2 14 -9 61 -15 105 -15 112 -19 137 -24 160 -4 20 -11 75 -21 155 -3
25 -8 59 -11 75 -3 17 -7 44 -10 60 -9 55 -70 75 -99 32z"/>
<path d="M4152 7333 c-17 -14 -25 -40 -37 -113 -8 -52 -17 -108 -19 -125 -7
-39 -14 -88 -22 -150 -3 -27 -8 -57 -9 -65 -1 -8 -6 -35 -10 -60 -4 -25 -9
-54 -11 -65 -2 -11 -7 -40 -10 -65 -3 -25 -7 -52 -9 -60 -2 -8 -7 -35 -10 -60
-3 -25 -8 -56 -10 -70 -5 -26 -7 -37 -24 -150 -6 -36 -13 -82 -16 -102 -10
-63 29 -103 75 -78 26 14 36 41 44 109 3 29 8 62 11 74 2 12 7 40 10 62 3 22
10 65 15 95 15 92 22 133 25 170 3 19 7 45 10 57 3 12 7 41 10 65 3 24 10 69
16 101 5 31 7 62 4 67 -3 6 -2 10 3 10 5 0 9 6 9 13 0 12 9 77 18 132 25 152
27 179 13 196 -21 27 -53 32 -76 12z"/>
<path d="M2181 7044 c-30 -21 -25 -43 35 -170 25 -55 63 -135 84 -179 21 -44
66 -138 100 -210 34 -71 75 -157 90 -190 94 -204 152 -315 167 -323 35 -18 85
19 78 58 -3 16 -30 76 -120 265 -32 66 -74 156 -95 200 -21 44 -60 127 -88
185 -27 58 -75 159 -107 225 -76 161 -91 176 -144 139z"/>
<path d="M5110 7030 c-17 -17 -53 -88 -263 -520 -57 -118 -131 -271 -165 -340
-33 -69 -64 -136 -67 -150 -8 -34 23 -63 62 -58 26 3 35 18 114 176 47 96 87
177 89 180 1 4 54 113 117 242 63 129 135 276 159 325 52 109 52 147 -2 158
-17 3 -32 -1 -44 -13z"/>
<path d="M1352 6484 c-33 -23 -28 -62 14 -109 51 -57 204 -223 234 -255 21
-21 132 -143 225 -245 11 -13 65 -71 120 -130 55 -59 107 -116 115 -125 26
-29 53 -39 75 -28 45 25 46 60 2 109 -17 21 -75 83 -127 140 -52 56 -99 107
-105 113 -5 6 -59 65 -119 131 -60 66 -117 127 -125 136 -9 9 -54 58 -101 109
-170 188 -165 184 -208 154z"/>
<path d="M5885 6407 c-38 -41 -119 -127 -180 -191 -159 -170 -184 -198 -314
-336 -202 -215 -215 -230 -216 -252 -2 -27 28 -58 56 -58 13 0 42 22 73 54 55
58 264 280 361 384 33 36 78 84 100 107 277 294 266 281 260 311 -2 10 -4 22
-4 26 -1 3 -15 11 -33 17 -32 11 -33 10 -103 -62z"/>
<path d="M712 5698 c-33 -41 -13 -76 71 -124 39 -23 252 -147 472 -276 220
-129 411 -237 424 -241 17 -4 30 1 46 18 29 28 24 58 -14 84 -23 16 -787 465
-898 527 -46 26 -85 31 -101 12z"/>
<path d="M6244 5493 c-186 -106 -347 -198 -357 -203 -10 -6 -71 -41 -135 -77
-133 -76 -148 -86 -155 -115 -8 -29 34 -69 63 -61 49 13 965 543 980 567 11
19 12 30 3 49 -24 51 -41 44 -399 -160z"/>
<path d="M2850 5163 c-192 -24 -340 -96 -458 -222 -139 -148 -220 -386 -220
-641 -1 -103 18 -245 35 -272 6 -10 95 -13 466 -13 l458 0 35 -65 c63 -115
106 -195 112 -204 3 -5 37 54 76 130 l71 139 273 2 c151 1 280 4 288 7 8 3 14
14 14 25 0 11 7 40 14 63 8 24 17 54 20 68 3 14 14 58 26 98 11 40 18 77 15
83 -4 5 -2 9 3 9 5 0 24 57 42 126 19 73 36 121 40 113 4 -8 13 -50 20 -94 7
-44 14 -89 16 -100 17 -97 76 -445 79 -465 5 -32 13 -79 26 -155 6 -33 12 -69
14 -80 11 -80 24 -117 26 -74 0 13 2 33 3 44 2 11 6 44 10 74 4 30 10 63 12
75 2 12 6 37 9 56 2 19 7 51 10 70 2 19 7 55 10 80 3 25 8 52 10 60 2 8 7 35
10 60 3 25 7 56 9 70 5 26 32 214 42 285 3 22 7 47 9 55 2 8 7 40 10 70 3 30
8 62 10 70 2 8 6 38 10 65 3 28 17 122 31 209 13 88 22 161 20 163 -7 8 -103
19 -151 17 -316 -8 -574 -168 -723 -448 l-21 -38 -30 60 c-99 197 -310 356
-537 407 -68 14 -195 24 -244 18z"/>
<path d="M4614 5102 c11 -67 17 -107 22 -137 4 -29 8 -50 19 -125 3 -19 7 -46
10 -60 3 -14 8 -41 10 -60 3 -19 9 -58 14 -85 5 -28 12 -75 16 -104 4 -30 9
-63 11 -75 7 -33 11 -57 45 -276 18 -113 36 -209 39 -213 7 -8 126 50 159 76
7 6 48 11 92 11 l78 0 12 55 c19 88 16 352 -5 411 -3 8 -7 29 -9 45 -20 137
-137 338 -254 435 -59 49 -166 110 -226 127 l-39 12 6 -37z"/>
<path d="M347 4767 c-10 -7 -20 -21 -21 -32 -7 -41 22 -67 87 -79 12 -2 110
-25 217 -50 245 -56 653 -152 744 -173 47 -11 73 -13 84 -6 56 35 36 96 -35
109 -7 1 -43 10 -80 19 -37 10 -79 19 -93 21 -14 3 -38 9 -55 14 -16 5 -41 11
-55 14 -38 7 -146 32 -564 131 -193 46 -208 48 -229 32z"/>
<path d="M6920 4739 c-19 -5 -45 -11 -58 -13 -13 -3 -116 -26 -230 -51 -114
-26 -214 -48 -222 -50 -116 -23 -529 -120 -542 -126 -10 -6 -19 -13 -19 -17
-12 -66 10 -87 82 -78 28 4 55 8 59 11 3 2 17 6 31 9 13 2 76 16 139 30 63 15
124 28 135 30 11 3 91 20 178 40 87 20 169 38 183 40 13 3 32 7 42 10 9 3 28
7 42 10 148 28 246 56 261 75 19 23 15 53 -8 73 -19 16 -30 17 -73 7z"/>
<path d="M4579 4540 c-5 -57 -8 -76 -13 -105 -8 -51 -15 -96 -31 -210 -17
-120 -23 -157 -30 -195 -3 -14 -7 -47 -11 -75 -3 -27 -7 -57 -9 -65 -1 -8 -6
-40 -10 -70 -4 -30 -9 -64 -11 -75 -2 -11 -7 -40 -10 -65 -3 -25 -8 -53 -10
-64 -2 -10 -6 -44 -10 -75 -3 -31 -8 -58 -9 -61 -2 -3 -6 -29 -10 -59 -4 -30
-8 -62 -10 -71 -2 -9 -6 -41 -10 -71 -3 -30 -10 -76 -15 -104 -5 -27 -12 -70
-15 -95 -2 -25 -7 -58 -10 -74 l-6 -29 53 44 c84 69 328 314 383 385 28 36 55
70 60 77 26 30 105 147 132 197 17 30 40 72 52 93 11 20 18 37 15 37 -4 0 -2
6 4 13 6 6 19 35 31 64 20 51 20 51 0 56 -39 10 -76 -3 -203 -72 -71 -39 -137
-73 -146 -76 -15 -5 -20 14 -39 132 -13 76 -24 147 -26 158 -13 89 -18 123
-22 140 -2 11 -6 36 -9 55 -10 74 -35 217 -43 250 -8 31 -9 32 -12 10z"/>
<path d="M4127 4100 c-3 -8 -11 -35 -18 -60 -7 -25 -14 -52 -16 -60 -3 -8 -7
-27 -10 -42 -4 -23 -11 -28 -37 -29 -17 0 -149 -1 -293 -1 l-262 0 -100 -200
-99 -199 -19 28 c-19 27 -53 87 -114 199 -48 90 -53 98 -77 135 l-23 37 -405
-1 c-315 0 -404 -3 -404 -13 0 -44 131 -278 227 -405 240 -317 657 -672 1086
-923 l98 -58 67 37 c94 52 388 249 502 337 109 84 106 75 74 232 -2 11 -6 39
-9 61 -3 22 -8 51 -10 65 -3 14 -15 77 -25 140 -11 63 -22 124 -24 135 -2 11
-9 56 -16 100 -7 44 -14 89 -16 100 -2 11 -7 34 -9 50 -3 17 -10 55 -15 85 -6
30 -11 67 -12 83 -1 15 -5 27 -9 27 -3 0 -5 10 -4 23 3 34 -21 134 -28 117z"/>
<path d="M1277 3844 c-1 -1 -56 -5 -122 -8 -66 -4 -138 -9 -160 -11 -22 -3
-80 -7 -130 -10 -49 -3 -115 -7 -145 -10 -81 -6 -193 -14 -295 -20 -160 -10
-171 -14 -181 -64 -7 -33 29 -60 76 -56 26 3 218 16 285 20 137 9 255 17 285
20 19 2 80 6 135 9 192 12 356 26 378 32 29 9 40 40 25 72 -13 25 -18 27 -81
28 -37 0 -68 -1 -70 -2z"/>
<path d="M5905 3807 c-32 -46 -8 -85 59 -92 28 -3 101 -9 256 -20 30 -3 82 -7
115 -9 33 -3 89 -8 125 -11 36 -3 92 -7 125 -10 33 -2 94 -7 135 -10 41 -3 91
-7 110 -10 19 -2 76 -6 126 -10 86 -6 93 -5 112 15 17 18 19 27 10 51 -5 16
-13 31 -17 34 -8 4 -55 9 -206 20 -38 3 -90 8 -115 10 -25 2 -79 7 -120 10
-41 3 -100 8 -130 10 -30 3 -91 7 -135 10 -44 3 -96 7 -115 10 -43 5 -185 16
-263 20 -49 3 -59 0 -72 -18z"/>
<path d="M646 3542 c-4 -7 -9 -35 -21 -122 -25 -180 -20 -466 11 -624 2 -12 7
-37 10 -56 19 -108 89 -336 136 -440 36 -80 106 -218 132 -259 15 -22 26 -43
26 -45 0 -5 83 -125 146 -212 98 -135 308 -355 439 -460 33 -27 62 -51 65 -54
3 -4 50 -38 105 -77 132 -94 265 -172 461 -271 331 -168 554 -321 774 -534 87
-83 205 -223 262 -309 47 -72 67 -92 69 -71 1 13 7 34 43 157 76 260 111 496
110 740 -2 179 -7 228 -43 368 -96 371 -336 689 -671 888 -38 22 -126 66 -197
98 -212 95 -501 246 -645 337 -21 13 -42 24 -48 24 -6 0 -22 -24 -36 -53 -84
-184 38 -412 356 -665 88 -69 239 -174 325 -223 l60 -34 -73 -3 c-191 -8 -461
79 -657 211 -248 167 -499 463 -653 772 -66 132 -131 338 -147 465 -3 25 -8
56 -10 70 -2 14 -7 43 -10 65 -28 194 -125 314 -261 321 -29 1 -56 0 -58 -4z"/>
<path d="M6544 3526 c-73 -34 -143 -125 -159 -206 -2 -11 -6 -24 -9 -28 -2 -4
-7 -30 -11 -57 -10 -74 -14 -102 -20 -133 -3 -15 -8 -47 -11 -72 -3 -25 -8
-48 -11 -53 -2 -4 -7 -19 -9 -34 -5 -25 -37 -129 -51 -163 -3 -8 -7 -21 -9
-28 -10 -48 -199 -390 -234 -422 -3 -3 -29 -36 -58 -75 -167 -218 -356 -381
-563 -485 -86 -44 -232 -96 -295 -106 -21 -3 -58 -9 -81 -13 -23 -5 -81 -9
-130 -10 l-88 -2 70 41 c81 48 254 163 281 188 11 9 37 30 59 46 22 16 90 79
150 140 204 206 261 370 183 524 -23 45 -33 50 -63 28 -92 -64 -504 -282 -645
-341 -36 -15 -96 -43 -134 -62 -261 -131 -499 -367 -628 -623 -24 -47 -47 -88
-53 -92 -5 -4 -7 -8 -4 -8 4 0 -6 -33 -22 -73 -15 -40 -30 -84 -32 -98 -3 -13
-12 -51 -21 -84 -24 -93 -31 -167 -31 -330 1 -205 19 -360 72 -585 30 -131 84
-310 94 -310 4 0 18 19 32 43 87 148 307 382 495 527 65 50 122 94 127 98 69
53 275 172 448 258 253 126 456 257 647 418 72 61 297 294 358 371 35 44 70
89 79 99 24 29 137 205 168 261 70 125 163 336 181 411 4 16 11 35 17 42 5 6
7 12 3 12 -3 0 -1 11 4 25 5 14 12 36 14 48 2 12 9 41 15 65 7 24 14 57 16 75
3 18 7 43 10 57 10 46 16 105 20 190 3 47 7 97 9 113 2 15 -1 27 -6 27 -5 0
-4 8 1 19 6 10 9 20 6 22 -2 2 -6 47 -9 99 -6 97 -11 145 -24 221 -7 43 -8 44
-53 46 -30 1 -62 -6 -95 -21z"/>
</g>
</svg>
